<?xml version="1.0" encoding="utf-8"?>
<!-- Generator: Adobe Illustrator 24.0.0, SVG Export Plug-In . SVG Version: 6.00 Build 0)  -->
<svg version="1.1" id="Capa_1" xmlns="http://www.w3.org/2000/svg" xmlns:xlink="http://www.w3.org/1999/xlink" x="0px" y="0px"
	 viewBox="0 0 500 392.8" style="enable-background:new 0 0 500 392.8;" xml:space="preserve">
<style type="text/css">
	.st0{fill:#DCEDF9;}
	.st1{fill:#0077EB;}
	.st2{fill:#0059D3;}
	.st3{fill:#008EFF;}
	.st4{fill:#303669;}
	.st5{fill:#3E478D;}
	.st6{fill:#292E51;}
	.st7{fill:#F9AF8B;}
	.st8{fill:#FFFFFF;}
	.st9{fill:#2E3052;}
	.st10{fill:#001030;}
	.st11{fill:#524E84;}
	.st12{fill:#1F2232;}
	.st13{fill:#FC8664;}
	.st14{fill:#FD664D;}
	.st15{fill:#000B29;}
	.st16{fill:#71C6FF;}
</style>
<g>
	<ellipse class="st0" cx="244.8" cy="371.2" rx="207.8" ry="13.7"/>
</g>
<g>
	<g>
		<g>
			<g>
				<path class="st1" d="M446.9,259c-12.7,12.7,1.5,13.8-7.9,23.4c-8.5,8.8-21.1,0.2-20.2,21.6c0.2,4.7-3.2,8.1-8,9.9
					c-7.9,2.9-15.5,0.2-20.3-5.2c-0.4-0.4-0.8-0.9-1.1-1.4c-3.6-4.9-4.9-11.5-2.2-18.1c2.2-5.3,6-10.6,12.8-12.7
					c15.9-4.9,7.1-26,20.5-26.9c16.2-1.1,16.8-7.1,28.3-15.1C461,226.1,464.2,241.7,446.9,259z"/>
			</g>
			<g>
				<g>
					<path class="st2" d="M441.2,252c-0.4,0.4-29.9,30.8-50.7,56.7c-0.4-0.4-0.8-0.9-1.1-1.4c20.9-26,50.2-56.2,50.5-56.6
						c0.3-0.3,0.9-0.3,1.2,0C441.6,251.1,441.6,251.7,441.2,252z"/>
				</g>
			</g>
		</g>
		<g>
			<g>
				<path class="st3" d="M450.2,301.4c-19.9,11.7-2.6,17.6-17.3,26.6c-13.4,8.2-26.3-6.5-32.1,20.4c-1.3,5.9-6.6,9.1-13.1,9.8
					c-10.7,1.1-19.4-4.7-23.6-12.9c-0.3-0.7-0.6-1.3-0.9-2c-2.9-7.3-2.4-16,3.1-23.3c4.4-6,10.9-11.3,20-11.7
					c21.4-1,17.2-30.1,34.2-26.9c20.5,3.8,23.2-3.4,40.1-9.7C478.3,265,477.2,285.5,450.2,301.4z"/>
			</g>
			<g>
				<g>
					<path class="st1" d="M445.3,290.9c-0.6,0.3-47.1,28.7-81.3,54.3c-0.3-0.7-0.6-1.3-0.9-2c34.3-25.6,80.6-53.8,81.1-54.1
						c0.5-0.3,1.2-0.1,1.5,0.4C446,289.9,445.9,290.6,445.3,290.9z"/>
				</g>
			</g>
		</g>
	</g>
	<g>
		<g>
			<g>
				<path class="st1" d="M61.5,113.7c6.8,16.6-6.7,12.2-1.8,24.6c4.5,11.4,19.3,8.3,10.3,27.7c-2,4.2-0.2,8.8,3.6,12.2
					c6.1,5.7,14.3,6.2,20.7,3.1c0.5-0.3,1-0.5,1.5-0.8c5.2-3.1,9-8.8,9.1-15.9c0.1-5.8-1.4-12.1-6.9-16.6
					c-12.8-10.7,3.5-26.7-8.6-32.7c-14.5-7.3-12.8-13-20.3-24.8C61.2,77.9,52.3,91.2,61.5,113.7z"/>
			</g>
			<g>
				<g>
					<path class="st2" d="M69.5,109.5c0.2,0.5,15.7,39.9,24.9,71.9c0.5-0.3,1-0.5,1.5-0.8c-9.3-32-24.6-71.2-24.8-71.7
						c-0.2-0.4-0.7-0.7-1.1-0.5C69.5,108.6,69.3,109,69.5,109.5z"/>
				</g>
			</g>
		</g>
		<g>
			<g>
				<path class="st3" d="M42.1,157.1c14.4,18.1-3.9,17.4,6.7,31c9.6,12.4,26.9,3.3,22.7,30.5c-0.9,5.9,2.9,10.9,8.8,13.8
					c9.6,4.9,19.8,2.5,26.7-3.7c0.6-0.5,1.1-1,1.6-1.6c5.3-5.7,7.9-14,5.5-22.8c-2-7.1-6.1-14.4-14.5-18.1
					c-19.6-8.6-5.3-34.2-22.3-37.3c-20.6-3.8-20.4-11.4-34-23.3C28.8,113.1,22.5,132.6,42.1,157.1z"/>
			</g>
			<g>
				<g>
					<path class="st1" d="M50.3,149.1c0.4,0.5,33.7,43.6,56.6,79.8c0.6-0.5,1.1-1,1.6-1.6c-22.9-36.2-56-79-56.4-79.5
						c-0.4-0.5-1.1-0.6-1.5-0.2C50.1,147.9,50,148.6,50.3,149.1z"/>
				</g>
			</g>
		</g>
	</g>
	<g>
		<path class="st3" d="M139.3,141.4c5.8-4,20.4,5.8,28,17.8l-6.7-18.9c-2.4-2.1-6.7-5.1-13.4-7.5c-10.4-3.7-20.8-9.5-15-13.4
			c5.5-3.7,18.6,4.7,26.5,15.6l-8.7-24.3c-1.6-1.2-4.1-2.7-7.6-4c-6.6-2.3-13.1-6-9.4-8.5c3.2-2.2,10.5,2.2,15.5,8.3l-2.8-7.9
			c-1.3-2.3-3.1-5.6-6-8.5c-6.7-6.9-11.7-14.7-6.6-15.8c5.2-1.1,13.6,12.4,14.9,24.6l1.4,4c-1.1-8.9,2.1-19.7,6.5-20
			c4.4-0.4,1.7,6.6-1.9,12.5c-2.7,4.5-3.5,8.1-3.7,10l6.8,19.1c-1.7-14.1,3.3-31.1,10.4-31.7c7-0.6,2.6,10.5-3.1,19.9
			c-4.3,7.1-5.5,12.8-5.9,15.8l8.2,22.9c-1.5-13.9,3.5-30.8,10.5-30.9c5.4,0,3.7,7.5-2.7,18.2c-4.3,7.3-5.7,13.8-6.2,17.2l3.9,10.8
			c-0.6,0.5-1.3,0.7-2,0.7l-1.5-4.3c-2.2-2.1-6.7-5.7-14.4-8.4C143.9,151.2,133.5,145.4,139.3,141.4z"/>
	</g>
	<g>
		<path class="st3" d="M88.2,301.7c-6,3.7-2.7,21,5.2,32.7l-14.7-13.7c-1-3.1-2-8.2-1.5-15.3c0.8-11-0.4-22.9-6.4-19.1
			c-5.6,3.5-3.1,18.9,3.8,30.5l-18.8-17.6c-0.5-2-0.9-4.8-0.7-8.5c0.5-6.9-0.3-14.4-4-12c-3.3,2.1-2.2,10.5,1.5,17.6l-6.1-5.7
			c-1.6-2.1-3.9-5.1-5.4-8.9c-3.7-8.9-8.8-16.6-11.9-12.3c-3.1,4.3,6,17.4,16.7,23.5l3.1,2.9c-7.7-4.6-18.9-5.9-21-2
			c-2.1,3.9,5.4,4.1,12.3,3.2c5.2-0.7,8.8,0,10.6,0.6l14.8,13.9c-12.2-7.2-29.8-9.3-33.2-3.1c-3.3,6.2,8.6,6.6,19.5,5.1
			c8.3-1.1,13.9,0,16.8,0.9l17.8,16.6c-12.2-6.9-29.7-9-32.5-2.7c-2.2,4.9,5.4,6.4,17.8,4.8c8.4-1.1,14.9,0.2,18.2,1.2l8.4,7.8
			c0.7-0.4,1.2-0.9,1.4-1.5l-3.3-3.1c-1.1-2.8-2.5-8.4-2-16.6C95.3,309.8,94.2,297.9,88.2,301.7z"/>
	</g>
</g>
<g>
	<rect x="70.9" y="147.1" class="st4" width="318.1" height="219.7"/>
	<polygon class="st5" points="389,147.1 389,161.2 229.9,302.1 70.9,161.2 70.9,147.1 229.9,288.5 	"/>
	<g>
		<polygon class="st5" points="199.3,260.8 80.1,366.8 70.9,366.8 70.9,361.2 192.4,253.1 		"/>
	</g>
	<g>
		<g>
			<polygon class="st5" points="389,361.9 389,366.8 378.9,366.8 259.8,260.8 266.6,253.1 			"/>
		</g>
	</g>
	<polygon class="st6" points="70.9,147.1 229.9,288.5 389,147.1 	"/>
</g>
<g>
	<g>
		<g>
			<polygon class="st7" points="301.2,127.3 305.3,136 296.7,136.1 293.4,128.2 			"/>
			<g>
				<g>
					<g>
						<path class="st3" d="M302.6,135.4c0,0,1.8-2.4,3.2-2.3c1.4,0.1,12.2,8.7,15.9,9.4c3.7,0.7,3.4,4.5,1.8,4.5
							c-4.5,0-29.1,0-29.1,0s-0.7-8.8,0.2-11.4C295.5,133,299.7,136,302.6,135.4z"/>
					</g>
					<g>
						<g>
							<path class="st8" d="M308.6,141.4c-0.1,0-0.3,0-0.4,0c-0.2-0.1-0.3-0.5-0.2-0.7c0-0.1,1.2-2,2.7-2.8c2-1,3.6,0.1,3.7,0.2
								c0.2,0.2,0.3,0.5,0.1,0.7c-0.2,0.2-0.5,0.3-0.7,0.1c0,0-1.1-0.8-2.6-0.1c-1.2,0.6-2.3,2.4-2.3,2.4
								C308.8,141.3,308.7,141.4,308.6,141.4z"/>
						</g>
						<g>
							<path class="st8" d="M307,140c-0.1,0-0.3,0-0.4,0c-0.2-0.1-0.3-0.5-0.2-0.7c0-0.1,1.2-2,2.7-2.8c2-1,3.6,0.1,3.7,0.2
								c0.2,0.2,0.3,0.5,0.1,0.7c-0.2,0.2-0.5,0.3-0.7,0.1c0,0-1.1-0.8-2.6-0.1c-1.2,0.6-2.3,2.4-2.3,2.4
								C307.2,139.8,307.1,139.9,307,140z"/>
						</g>
						<g>
							<path class="st8" d="M310.7,142.6c-0.1,0-0.3,0-0.4,0c-0.2-0.1-0.3-0.5-0.2-0.7c0-0.1,1.2-2,2.7-2.8c2-1,3.6,0.1,3.7,0.2
								c0.2,0.2,0.3,0.5,0.1,0.7c-0.2,0.2-0.5,0.3-0.7,0.1c0,0-1.1-0.8-2.6-0.1c-1.2,0.6-2.3,2.4-2.3,2.4
								C310.9,142.5,310.8,142.6,310.7,142.6z"/>
						</g>
					</g>
				</g>
			</g>
		</g>
		<g>
			<g>
				<g>
					<g>
						<g>
							<path class="st9" d="M303.7,130.1l-3.8,1.2l-2.1,0.1l-3.6,0.2c-4.8-3.8-17.7-15.2-20.3-22c0,0-16.7,38.7-39.7,38.7
								c-1.5,0,2.5-19.3,6.2-23.3c0,0,21.2-39.6,35-35.4C281.5,91.7,287.8,100.7,303.7,130.1z"/>
						</g>
					</g>
				</g>
			</g>
			<g>
				<path class="st10" d="M299.9,131.4l-2.1,0.1c-14.1-10.7-20.7-19.8-23.7-25.6c-0.1-0.2-0.3-0.3-0.4-0.3c-0.1,0-0.2,0.1-0.2,0.2
					c-6.8,15.9-14.9,25.5-20.5,30.7c-6.1,5.7-10.6,7.6-10.8,7.6l-0.3-0.6l-0.3-0.6c0,0,4.5-1.9,10.4-7.4
					c5.5-5.1,13.5-14.5,20.1-30.2c0.3-0.6,0.8-1,1.4-1c0.7,0,1.3,0.4,1.6,1C278.3,111.1,285.1,120.4,299.9,131.4z"/>
			</g>
			<path class="st11" d="M290.3,129.1c0.6,1.1,1.6,2.7,2.6,3.5c0,0,8.1-0.4,12.1-2.4l-1.8-4.1C303.3,126.1,296.8,128.5,290.3,129.1z
				"/>
		</g>
	</g>
	<g>
		<g>
			<g>
				<path class="st1" d="M301,73.6c-11.6,4.7-20.8,7.1-28.7,8.1c0,0,0,0,0,0c-0.1,0-2,0.2-2.7,0.1c-2.1-0.1-5-0.6-7.9-1.9
					c-2.1-1-5-3.5-8.1-6.4c-3.8-3.7-7.9-8.1-10.7-11.3c-2.2-2.5-3.6-4.2-3.6-4.2c1.9-2.9,6.2-5.5,9.9-6.9c0,0,7.8,12.9,19.5,19.3
					c0.6,0.3,1.3,0.7,2,1c2.7-0.4,9.9-0.8,13.1-1c8.5-0.6,15.5-2.1,15.5-2.1L301,73.6z"/>
			</g>
		</g>
		<g>
			<g>
				<g>
					<path class="st7" d="M299,67.8c0,0,1.6-4.1,3.8-5.2c2.2-1.2,8.4-5.2,9.8-4c1.3,1.2,1.1,7.1-4.5,12c-3.6,3.1-7.1,3-7.1,3
						L299,67.8z"/>
				</g>
				<g>
					<g>
						<path class="st10" d="M312.9,62.3l-9.2,8.6c-0.3,0.3-1,0.4-1.4,0.2l-5.6-2.7c-0.2-0.1-0.3-0.2-0.3-0.3l0,0L296,67l1.5-0.6
							L312,61l0.8-0.3l0.3,1l0,0.1c0,0,0,0,0,0C313.2,61.9,313.1,62.1,312.9,62.3z"/>
					</g>
					<g>
						<path class="st12" d="M312,61l-14.5,5.5l8.2-7.7c0.3-0.3,1-0.4,1.4-0.2L312,61z"/>
					</g>
					<g>
						<g>
							<path class="st9" d="M302,70.1l-5.6-2.7c-0.4-0.2-0.5-0.6-0.1-1l9.2-8.6c0.3-0.3,1-0.4,1.4-0.2l5.6,2.7
								c0.4,0.2,0.5,0.6,0.1,1l-9.2,8.6C303.1,70.2,302.5,70.3,302,70.1z"/>
						</g>
					</g>
					<g>
						<path class="st9" d="M302.7,68.6l-4.4-2.1c-0.4-0.2-0.5-0.6-0.1-1l7.2-6.7c0.3-0.3,1-0.4,1.4-0.2l4.4,2.1
							c0.4,0.2,0.5,0.6,0.1,1l-7.2,6.7C303.8,68.7,303.1,68.8,302.7,68.6z"/>
					</g>
					<g>
						<path class="st12" d="M313.1,61.7L313.1,61.7C313.1,61.7,313.1,61.7,313.1,61.7L313.1,61.7z"/>
					</g>
				</g>
				<g>
					<path class="st7" d="M302.6,60.5c0,0,1.3,0.2,1.4,1.3c0.1,1.1-1.1,0.7-1.9,0.4c-0.8-0.2-1.5,0-1.6,0.1
						C300.2,62.8,300.3,60.2,302.6,60.5z"/>
				</g>
				<g>
					<path class="st7" d="M308.5,66.6c0,0,2.1-3.4,3.6-5.2c1.1-1.2,1.6,0.6,0.9,1.8C312.2,64.4,310.8,67,308.5,66.6z"/>
				</g>
			</g>
		</g>
	</g>
	<g>
		<g>
			<g>
				<g>
					<g>
						<path class="st3" d="M212.6,127.6L208,98.2l-0.3-1.7l0-1.3l1-41.6l11.6-3.9l0.6-0.2l2.6-0.9l2.1-0.7l12.2,1.7l2,0.3l0.7,0.1
							l8.7,1.2c0.1,27.6-2.6,33.6,2.5,56C254.3,115.6,244.9,145.6,212.6,127.6z"/>
					</g>
				</g>
			</g>
		</g>
		<g>
			<g>
				<path class="st1" d="M219.1,120.1C219.1,120.1,219.1,120.1,219.1,120.1c9.1-2.6,15.8-8.9,19.8-13.7c4.3-5.2,6.5-9.9,6.5-10
					c0.1-0.2,0-0.5-0.2-0.6c-0.2-0.1-0.5,0-0.6,0.2c0,0-2.2,4.7-6.4,9.8c-3.9,4.7-10.4,10.9-19.3,13.4c-0.2,0.1-0.4,0.3-0.3,0.6
					C218.6,120,218.8,120.1,219.1,120.1z"/>
			</g>
		</g>
		<g>
			<g>
				<path class="st1" d="M229.5,120.6c7.9-2.2,14.6-8.9,14.9-9.2c0.2-0.2,0.2-0.5,0-0.6c-0.2-0.2-0.5-0.2-0.6,0
					c-0.1,0.1-7.9,8-16.4,9.4c-0.3,0-0.4,0.3-0.4,0.5c0,0.2,0.3,0.4,0.5,0.4C228.1,120.9,228.8,120.7,229.5,120.6z"/>
			</g>
		</g>
		<g>
			<g>
				<path class="st1" d="M223.9,61.8c7.9-2.2,14.6-8.9,14.9-9.2c0.2-0.2,0.2-0.5,0-0.6c-0.2-0.2-0.5-0.2-0.6,0
					c-0.1,0.1-7.9,8-16.4,9.4c-0.3,0-0.4,0.3-0.4,0.5c0,0.2,0.3,0.4,0.5,0.4C222.5,62.2,223.2,62,223.9,61.8z"/>
			</g>
		</g>
	</g>
	<g>
		<g>
			<polygon class="st7" points="293.5,203.7 296.7,210.8 290.1,213.6 286.3,206.3 			"/>
			<g>
				<g>
					<g>
						<path class="st3" d="M295.2,210.6c0,0,0.7-2.9,2-3.3c1.3-0.5,14.7,3.1,18.3,2.3c3.7-0.8,4.1,2,4,3.5
							c-0.1,1.5-27.3,11.3-27.3,11.3s-4.2-7.6-4.3-10.3C287.8,211.3,292.8,212.4,295.2,210.6z"/>
					</g>
					<g>
						<g>
							<path class="st8" d="M303.1,213.7c-0.1,0.1-0.2,0.1-0.4,0.1c-0.3,0-0.5-0.3-0.5-0.6c0-0.1,0.3-2.3,1.4-3.7
								c1.4-1.7,3.3-1.3,3.4-1.3c0.3,0.1,0.5,0.3,0.4,0.6c-0.1,0.3-0.3,0.5-0.6,0.4c-0.1,0-1.4-0.3-2.4,1c-0.9,1.1-1.1,3.1-1.1,3.1
								C303.3,213.5,303.2,213.7,303.1,213.7z"/>
						</g>
						<g>
							<path class="st8" d="M301.1,213c-0.1,0.1-0.2,0.1-0.4,0.1c-0.3,0-0.5-0.3-0.5-0.6c0-0.1,0.3-2.3,1.4-3.7
								c1.4-1.7,3.3-1.3,3.4-1.3c0.3,0.1,0.5,0.3,0.4,0.6c-0.1,0.3-0.3,0.5-0.6,0.4c-0.1,0-1.4-0.3-2.4,1c-0.9,1.1-1.1,3.1-1.1,3.1
								C301.3,212.8,301.2,212.9,301.1,213z"/>
						</g>
						<g>
							<path class="st8" d="M305.5,214c-0.1,0.1-0.2,0.1-0.4,0.1c-0.3,0-0.5-0.3-0.5-0.6c0-0.1,0.3-2.3,1.4-3.7
								c1.4-1.7,3.3-1.3,3.4-1.3c0.3,0.1,0.5,0.3,0.4,0.6c-0.1,0.3-0.3,0.5-0.6,0.4c-0.1,0-1.4-0.3-2.4,1c-0.9,1.1-1.1,3.1-1.1,3.1
								C305.6,213.8,305.6,213.9,305.5,214z"/>
						</g>
					</g>
				</g>
			</g>
		</g>
		<g>
			<g>
				<g>
					<g>
						<g>
							<path class="st4" d="M295.1,205.1c-0.7,0.8-2.8,1.9-5.1,3c-0.4,0.2-0.8,0.4-1.3,0.5c-0.7,0.3-1.5,0.6-2.2,0.8
								c0,0-15.5-28.6-21.5-49.4c0,0-52.6-6.5-54.4-24.9c-0.1-0.6-0.1-1.2,0-1.9c0.2-1.8,0.8-3.6,1.9-5.6c1.2-2.1,19.2-0.1,28.9,2.7
								c0,0,26.4,10.3,36.1,20.9C282.6,156.5,295.1,205.1,295.1,205.1z"/>
						</g>
					</g>
				</g>
				<g>
					<path class="st10" d="M290,208c-0.4,0.2-0.8,0.4-1.3,0.5c-7.9-13-18.8-43.4-21.2-50.7c-0.2-0.5-0.6-0.9-1.1-1
						c-25.6-4.8-40.3-11.5-48.1-16.3c-3.5-2.1-5.9-4-7.7-5.6c-0.1-0.6-0.1-1.2,0-1.9c1.7,1.6,4.4,3.9,8.5,6.4
						c7.8,4.7,22.3,11.3,47.5,16c1,0.2,1.8,0.9,2.1,1.9C271.3,164.7,282.3,195.3,290,208z"/>
				</g>
			</g>
			<path class="st11" d="M283.8,206.4l2.5,4c0,0,6.2-1.1,10.4-5.3l-1.5-3.5C295.1,201.5,287.6,205.2,283.8,206.4z"/>
		</g>
	</g>
	<g>
		<path class="st7" d="M200.1,138.5c0,0,3.6,4.9,3.3,7.4c-0.3,2.5-3.5,7.2-6.1,7.5c-2.6,0.2,3-6.1,1.7-5.9
			c-1.6,0.2-12.3,9.1-14.6,9.1c-2.3,0,2.7-4.1,4.6-5.1c0,0-5.1,2.3-6.3,3.5c-1.2,1.2-2-1.4,3.9-4.9c0,0-5.4,3.1-5.8,3.1
			c-1.2,0.2,2.2-3.9,5.2-5.3c0,0-4.3,2.1-4.8,2.1c-0.6,0,0.7-1.4,3.9-3.2c2.9-1.6,7.7-9,7.7-9L200.1,138.5z"/>
		<g>
			<path class="st1" d="M208.8,53.5c0,0-12,23.1-14.8,47.3l-1.3,36.8c0,0,1.2,2.6,7.4,0.9l5.9-36.7l4.5-16.8
				C210.6,84.9,212.7,64.2,208.8,53.5z"/>
		</g>
	</g>
	<g>
		
			<ellipse transform="matrix(0.2837 -0.9589 0.9589 0.2837 141.5905 241.8776)" class="st9" cx="232.7" cy="26.2" rx="13.3" ry="13.3"/>
		<path class="st9" d="M246,26.1c0,0,3.9-0.4,4-4.1c0.1-3.1-3.8-1.8-3.1-4.1c0.7-2.3,1.8-4.4-1.2-5.5c-2.6-1-3,0.8-6.1-2.5
			c-3.6-3.9-8.2,2.9-12,2.4c-5.6-0.7-6.8,2.4-7.8,4.8c-1,2.4,0.8,4.5,0.8,4.5L246,26.1z"/>
		<g>
			<path class="st13" d="M243,31.8c0,0,2.6-2.4,3.7,0.2c1.1,2.6-2.2,8.9-5.7,6.6L243,31.8z"/>
			<g>
				<path class="st14" d="M242.1,36.6c0.1,0,0.3,0,0.3-0.2c1-2,3.3-2.4,3.3-2.5c0.2,0,0.3-0.2,0.3-0.4c0-0.2-0.2-0.3-0.4-0.3
					c-0.1,0-2.7,0.5-3.8,2.8C241.8,36.3,241.9,36.5,242.1,36.6C242.1,36.6,242.1,36.6,242.1,36.6z"/>
			</g>
			<g>
				<g>
					<path class="st14" d="M244.5,35.9c0.1,0,0.1,0,0.2,0c0.2-0.1,0.2-0.3,0.2-0.4c0,0-0.3-0.7-1-1.2c-0.1-0.1-0.3-0.1-0.5,0.1
						c-0.1,0.1-0.1,0.3,0.1,0.5c0.6,0.4,0.8,0.9,0.8,0.9C244.3,35.8,244.4,35.9,244.5,35.9z"/>
				</g>
			</g>
		</g>
		<path class="st7" d="M225.7,41.8l-1.2,6.7c0,0,2.2,3.5,4.9,4.2c2.7,0.7,4.9-2.2,4.9-2.2l1.1-6.5L225.7,41.8z"/>
		<path class="st13" d="M225.7,41.8l-0.5,3c1.5,2.3,4.6,3.4,9.5,3.6l0.8-4.3L225.7,41.8z"/>
		<path class="st7" d="M221.6,23.2c-0.3,2.6-0.7,5.9-0.6,8.6c0,0.7,0,1.3,0.1,1.9c0.5,5.2,2.6,14.3,13.1,12.5
			c4.7-0.8,7.5-5.3,9.3-10.1c1.2-3.3,1.9-6.6,2.3-9.1c0.4-2.5-0.6-5-2.5-6.6c-5.3-4.3-11.7-4.2-16-3.4
			C224.3,17.7,222,20.2,221.6,23.2z"/>
		<path class="st9" d="M237.8,31.8c-0.1,0.7,0.1,1.4,0.6,1.4c0.5,0.1,0.9-0.4,1.1-1.2c0.1-0.7-0.1-1.4-0.6-1.4
			C238.4,30.5,238,31,237.8,31.8z"/>
		<path class="st9" d="M228.1,30c-0.1,0.7,0.1,1.4,0.6,1.4c0.5,0.1,0.9-0.4,1.1-1.2c0.1-0.7-0.1-1.4-0.6-1.4
			C228.7,28.8,228.3,29.3,228.1,30z"/>
		<path class="st9" d="M242,28.4c0,0-3.2-2-6-1.3l0,1.3c0,0,3-0.1,5.6,1.4C241.9,29.2,242.2,29,242,28.4z"/>
		<path class="st9" d="M226.3,25.6c0,0,3.7-0.8,6.1,0.9l-0.4,1.2c0,0-2.8-1.1-5.7-0.6C226.2,26.5,226,26.1,226.3,25.6z"/>
		<g>
			<g>
				<path class="st13" d="M232.3,36.1c-0.5-0.1-1-0.4-1.1-0.4c-0.2-0.1-0.2-0.3-0.1-0.4c0.1-0.2,0.3-0.2,0.4-0.1
					c0.3,0.2,0.9,0.5,1.3,0.3c0.1,0,0.2-0.1,0.2-0.3c0.3-1.1,0.7-4.9,0.7-4.9c0-0.2,0.2-0.3,0.4-0.3c0.2,0,0.3,0.2,0.3,0.4
					c0,0.2-0.4,3.9-0.7,5c-0.1,0.4-0.4,0.6-0.6,0.7C232.8,36.1,232.6,36.1,232.3,36.1z"/>
			</g>
		</g>
		<path class="st8" d="M236,38.7c-0.5,1.3-1.8,3.5-4.7,3c-2.9-0.5-3.4-2.9-3.4-4.4L236,38.7z"/>
		<g>
			<path class="st13" d="M231,43.4c-0.8-0.1-1.5-0.7-1.5-0.7c-0.1-0.1-0.1-0.3,0-0.5c0.1-0.1,0.3-0.1,0.5,0c0,0,0.5,0.4,1.2,0.6
				c0.6,0.1,1.2-0.1,1.2-0.1c0.2-0.1,0.4,0,0.4,0.2c0.1,0.2,0,0.4-0.2,0.4C232.6,43.3,231.8,43.6,231,43.4z"/>
		</g>
		<path class="st9" d="M242.9,33.9c0.5-1.3,1-2.9,1-3.8c0-1.6-1.2-2.7-0.5-4.1c0.7-1.4-0.6-3.3-1.7-3.8c-1.1-0.5-3.9-0.4-6.4-2.1
			c-2.3-1.7-6.9-1.6-7.9-0.1c-1.2,1.8-0.1,2.2-2.8,3.9c-1.1,0.7-0.4,3.1-0.5,4.6c0,0.7-0.1,1-0.2,1.7l-0.1,0.4l-2.8-0.5
			c0.1-2.3,0.3-4.8,0.6-6.8c0.4-3,2.7-5.5,5.7-6.1c4.3-0.8,10.7-1,16,3.4c1.9,1.6,2.9,4.1,2.5,6.6c-0.3,1.9-0.8,4.5-1.6,7.1
			L242.9,33.9z"/>
		<g>
			<path class="st7" d="M222.1,31.5c0.1-0.7,0.2-1.5,0.2-2.3c0-1-0.1-2-1.1-2.6c-0.8-0.5-1.6-0.6-2.4,0.2c-1.9,2-1.5,9.4,2.6,8.5
				L222.1,31.5z"/>
			<g>
				<g>
					<path class="st13" d="M221,33.1c-0.1-0.1-0.2-0.2-0.2-0.3c0.2-2.2-1.5-3.8-1.5-3.8c-0.1-0.1-0.1-0.3,0-0.5
						c0.1-0.1,0.3-0.1,0.5,0c0.1,0.1,2,1.8,1.7,4.4C221.4,33,221.3,33.2,221,33.1C221,33.1,221,33.1,221,33.1z"/>
				</g>
			</g>
			<g>
				<path class="st13" d="M219.3,31.3c-0.1,0-0.1-0.1-0.1-0.1c-0.1-0.1-0.1-0.3,0.1-0.5c0,0,0.6-0.4,1.5-0.5c0.2,0,0.3,0.1,0.3,0.3
					c0,0.2-0.1,0.3-0.3,0.3c-0.7,0-1.1,0.3-1.1,0.3C219.5,31.3,219.4,31.4,219.3,31.3z"/>
			</g>
		</g>
	</g>
</g>
<g>
	<g>
		<path class="st7" d="M372.3,185.2c0,0-4.4,8.3-9.5,14.9c-1.5,1.9-3.1,3.7-4.7,5.1c-2.5,2.2-5,3.4-7,2.4
			c-7.5-3.7-24.1-33.1-24.1-33.1l4.1-4.8c0,0,7.4,8.4,12.8,13.4c5,4.6,8.8,8.1,8.8,8.1c0.7-1,1.4-2.2,2.2-3.4c0.8-1.3,1.7-2.6,2.5-4
			c6.2-10,13.8-21,13.8-21L372.3,185.2z"/>
		<path class="st7" d="M332.1,172.7c0,0,1.7-2.8,1-5.3c-0.7-2.5-1.3-8.1-4-8c-1,0.1,0.5,2.4-0.2,4.6c0,0-2.9-1.4-4.9-2.8
			c-1.7-1.3-5.3-3.3-6.9-4.3c-0.5-0.3-1,0.2-0.7,0.7c0.4,0.7,1.5,1.8,3.8,3.3c0,0-5.9-3.3-6.9-2.6c-1,0.7,6.5,4.8,6.5,4.8
			s-6.1-2.4-6.6-1.6c-0.3,0.5,5.6,4,5.6,4s-5.9-1.8-4.8-0.4c0.3,0.4,11.5,5.5,13.9,11.4C328.1,176.5,331.3,174.7,332.1,172.7z"/>
		<path class="st13" d="M362.8,200.1c-1.5,1.9-3.1,3.7-4.7,5.1l-3.2-17.3c0.8-1.3,1.7-2.6,2.5-4L362.8,200.1z"/>
		<g>
			<path class="st3" d="M371.4,162.2L355.7,185l5,20.3l12.4-19.8C373.1,185.5,375.4,172.3,371.4,162.2z"/>
		</g>
	</g>
	<g>
		<polygon class="st7" points="379.5,357.1 379.5,364.2 386.3,364.1 386.7,356.5 		"/>
		<g>
			<path class="st9" d="M396.6,252c0,0.9-0.3,5-0.6,10.7c-0.9,15.7-2.7,43.6-3.8,49.9c-1.1,6.4-0.6,27.5-0.2,38.6
				c0.1,1.9-0.7,3.6-1.9,4.8c-0.5,0.5-1,0.9-1.6,1.2c-1,0.6-2.2,0.9-3.4,0.9H380c-3.9,0-7-3.1-6.8-6.9c0.3-9.3,0.6-26.4,0-39.6
				c-0.6-12.5,0.3-34.7,1-48.5h0c0.3-5.5,0.5-9.7,0.6-11.4L396.6,252z"/>
		</g>
		<path class="st10" d="M374.8,251.7l21.8,0.3c0,0.9-0.3,5-0.6,10.7c-7.4,0.9-15.1,1.3-21.8,0.4
			C374.5,257.6,374.7,253.4,374.8,251.7z"/>
		<g>
			<path class="st10" d="M390,331.5c0.2,7.1,0.4,14.4,0.3,20.3c0,1.7-0.1,3.1-0.2,4.3c-0.5,0.5-1,0.9-1.6,1.2
				c0.1-1.4,0.2-3.2,0.3-5.5c0.1-5.9-0.1-13.1-0.3-20.2c-0.2-8.6-0.5-16.8,0-20.2c1-7.6,3.4-48.7,4-59.7l1.5,0.1
				c-0.6,11-3,52.1-4,59.8C389.5,314.9,389.7,322.9,390,331.5z"/>
		</g>
		<g>
			<g>
				<g>
					<g>
						<path class="st3" d="M381.3,364c0,0-1.4-1.9-2.5-1.9c-1.1,0.1-10.1,6.7-13.1,7.2c-3,0.5-2.5,2.7-2,3.8c0.5,1.1,24,0.1,24,0.1
							s0.8-6.8,0.1-8.9C387,362.2,383.6,364.5,381.3,364z"/>
					</g>
					<g>
						<g>
							<path class="st8" d="M376.3,368.6c0.1,0,0.2,0,0.3,0c0.2-0.1,0.3-0.4,0.2-0.6c0-0.1-0.9-1.6-2.1-2.3c-1.6-0.8-2.9,0-3,0.1
								c-0.2,0.1-0.2,0.4-0.1,0.6c0.1,0.2,0.4,0.2,0.6,0.1c0,0,0.9-0.6,2.1,0c1,0.5,1.8,1.9,1.8,1.9
								C376.1,368.5,376.2,368.6,376.3,368.6z"/>
						</g>
						<g>
							<path class="st8" d="M377.6,367.5c0.1,0,0.2,0,0.3,0c0.2-0.1,0.3-0.4,0.2-0.6c0-0.1-0.9-1.6-2.1-2.3c-1.6-0.8-2.9,0-3,0.1
								c-0.2,0.1-0.2,0.4-0.1,0.6c0.1,0.2,0.4,0.2,0.6,0.1c0,0,0.9-0.6,2.1,0c1,0.5,1.8,1.9,1.8,1.9
								C377.4,367.4,377.5,367.5,377.6,367.5z"/>
						</g>
						<g>
							<path class="st8" d="M374.6,369.5c0.1,0,0.2,0,0.3,0c0.2-0.1,0.3-0.4,0.2-0.6c0-0.1-0.9-1.6-2.1-2.3c-1.6-0.8-2.9,0-3,0.1
								c-0.2,0.1-0.2,0.4-0.1,0.6c0.1,0.2,0.4,0.2,0.6,0.1c0,0,0.9-0.6,2.1,0c1,0.5,1.8,1.9,1.8,1.9
								C374.4,369.4,374.5,369.5,374.6,369.5z"/>
						</g>
					</g>
				</g>
			</g>
		</g>
	</g>
	<g>
		<polygon class="st7" points="412.2,357.1 413,364.2 418.9,364.1 419.4,356.5 		"/>
		<g>
			<path class="st9" d="M424.6,311.6c-0.7,13.2-0.3,30.2,0,39.6c0.1,3.8-3,6.9-6.8,6.9h-5.1c-1.1,0-2.2-0.3-3.1-0.7
				c-0.6-0.3-1.1-0.7-1.5-1.1c-1.4-1.3-2.2-3.1-2.1-5.1c0.3-11,0.8-32.2-0.2-38.6c-1.1-6.4-2.9-35.2-3.8-50.7
				c-0.3-5.2-0.5-8.9-0.6-9.8l21.8,0.3c0.1,1.1,0.2,2.8,0.3,5C423.9,269.8,425.3,297.1,424.6,311.6z"/>
		</g>
		<path class="st10" d="M423.2,257.3c-4.1,1.1-12.3,3.1-21.5,4.6c-0.3-5.2-0.5-8.9-0.6-9.8l21.8,0.3
			C423,253.4,423.1,255.2,423.2,257.3z"/>
		<g>
			<path class="st10" d="M409.2,351.7c0.1,2.4,0.2,4.2,0.3,5.6c-0.6-0.3-1.1-0.7-1.6-1.1c-0.1-1.3-0.2-2.8-0.2-4.5
				c-0.1-5.9,0.1-13.2,0.3-20.3c0.2-8.6,0.4-16.6,0-20c-1.1-7.6-3.4-48.8-4-59.8l1.5-0.1c0.6,11,2.9,52.1,4,59.7
				c0.5,3.5,0.3,11.6,0,20.2C409.2,338.6,409,345.9,409.2,351.7z"/>
		</g>
		<g>
			<g>
				<path class="st3" d="M415.3,363.1c0,0,3.1-0.8,3.9-0.8c0.8,0,6.5,6.2,8.4,6.6c3.5,0.7,3.5,5.9,1.4,6.2
					c-6.1,0.8-16.5-1.8-16.5-1.8s-1-6.8-0.5-8.9C412.3,362.3,413.6,363.8,415.3,363.1z"/>
			</g>
			<g>
				<g>
					<path class="st8" d="M420.3,368.9c-0.1,0-0.2,0-0.3-0.1c-0.2-0.1-0.2-0.4-0.1-0.6c0-0.1,1.1-1.6,2.4-2.1c1.7-0.7,2.9,0.3,3,0.4
						c0.2,0.1,0.2,0.4,0,0.6c-0.2,0.2-0.4,0.2-0.6,0c0,0-0.9-0.7-2.1-0.2c-1,0.4-2,1.8-2,1.8C420.5,368.8,420.4,368.9,420.3,368.9z"
						/>
				</g>
				<g>
					<path class="st8" d="M419.2,367.7c-0.1,0-0.2,0-0.3-0.1c-0.2-0.1-0.2-0.4-0.1-0.6c0-0.1,1.1-1.6,2.4-2.1c1.7-0.7,2.9,0.3,3,0.4
						c0.2,0.1,0.2,0.4,0,0.6c-0.2,0.2-0.4,0.2-0.6,0c0,0-0.9-0.7-2.1-0.2c-1,0.4-2,1.8-2,1.8C419.4,367.6,419.3,367.6,419.2,367.7z"
						/>
				</g>
				<g>
					<path class="st8" d="M422,370c-0.1,0-0.2,0-0.3-0.1c-0.2-0.1-0.2-0.4-0.1-0.6c0-0.1,1.1-1.6,2.4-2.1c1.7-0.7,2.9,0.3,3,0.4
						c0.2,0.1,0.2,0.4,0,0.6c-0.2,0.2-0.4,0.2-0.6,0c0,0-0.9-0.7-2.1-0.2c-1,0.4-2,1.8-2,1.8C422.1,369.9,422.1,370,422,370z"/>
				</g>
			</g>
		</g>
	</g>
	<g>
		<g>
			<g>
				<path class="st3" d="M427.9,254.2c-19.7,4.9-39.4,4.9-59,0c-0.1-7.2-0.2-36,0.4-59.6c0-0.5,0-0.9,0-1.4c0-0.2,0-0.5,0-0.7v0
					c0-0.3,0-0.6,0-0.9c0.4-15.6,1.2-28.3,2.4-30c0,0,0,0,0,0c2.9-3.9,17.7-10.3,21.8-13.1c0.3,0.5,2.3,3.5,5,3.7
					c2.9,0.2,5.5-3.1,5.5-3.1v-0.6c4.1,2.8,17.5,8.7,20.4,12.6C427.5,165.5,428,241.9,427.9,254.2z"/>
			</g>
		</g>
		<g>
			<g>
				<path class="st1" d="M375.2,183.5c-1.7,2.2-4.2,7.3-5.3,9.7c-0.2,0.3-0.3,0.6-0.4,0.8c-0.1,0.3-0.2,0.4-0.2,0.4
					c0,0.1-0.1,0.1-0.2,0.2c0-0.5,0-0.9,0-1.4c0-0.2,0-0.5,0-0.7v0c0.2-0.5,0.5-1,0.8-1.7c1.3-2.6,3.1-6.1,4.4-7.9
					c0.1-0.2,0.4-0.2,0.6-0.1C375.3,183.1,375.4,183.3,375.2,183.5z"/>
			</g>
		</g>
		<g>
			<g>
				<path class="st1" d="M413,166.1C412.9,166.1,412.9,166.1,413,166.1c-7.8-0.2-13.9-3.4-17.6-6.1c-4-2.9-6.1-5.6-6.2-5.7
					c-0.2-0.2-0.1-0.5,0.1-0.6c0.2-0.1,0.5-0.1,0.6,0.1c0.1,0.1,8.5,11,23.1,11.4c0.3,0,0.4,0.2,0.4,0.5
					C413.4,166,413.2,166.1,413,166.1z"/>
			</g>
		</g>
		<g>
			<g>
				<path class="st1" d="M386.6,239.2c-0.2,0-0.4-0.2-0.5-0.4c0-0.2,0.2-0.5,0.4-0.5c12.8-0.8,20.5-7.2,24.7-12.4
					c4.5-5.7,6-11.2,6-11.3c0.1-0.2,0.3-0.4,0.6-0.3c0.2,0.1,0.4,0.3,0.3,0.5c-0.1,0.2-1.6,5.8-6.2,11.6
					C407.7,231.8,399.8,238.3,386.6,239.2C386.6,239.2,386.6,239.2,386.6,239.2z"/>
			</g>
		</g>
		<g>
			<g>
				<path class="st1" d="M393.5,231.2c-0.2,0-0.4-0.1-0.4-0.3c-0.1-0.2,0.1-0.5,0.3-0.5c11.2-3,13.3-12.1,13.3-12.2
					c0.1-0.2,0.3-0.4,0.5-0.3c0.2,0.1,0.4,0.3,0.3,0.5c0,0.1-0.6,2.5-2.6,5.3c-1.8,2.6-5.3,6-11.4,7.6
					C393.6,231.2,393.5,231.2,393.5,231.2z"/>
			</g>
		</g>
	</g>
	<g>
		<path class="st7" d="M442.4,253.4c-0.3,3.9-2.7,6.8-2.7,9.4c0,2.6-3,0.9-1.6-4.2c1.4-5.1-0.7-10-1.8-10c-1.1,0,0.4,5.7-0.8,7.6
			c-1.2,1.9-2.1-2.1-3.1-4.5c-1.1-2.5-0.5-7.8,0.5-11.6c1-3.7-3.8-27.3-3.1-34l-1.7-8.6l-1-5l-0.2-5.3l9.1-3.5
			c0.3,1.7,0.7,3.4,1,5.2c0.2,0.8,0.3,1.6,0.5,2.3c1.2,6.3,2.3,12.5,2.8,16.5c1.2,11-0.8,33.4-0.8,33.4S442.6,249.7,442.4,253.4z"/>
		<path class="st13" d="M437.4,191.3c-2.1,2.3-5.3,5.2-9.4,6.3l-1-5l-0.2-5.3l9.1-3.5c0.3,1.7,0.7,3.4,1,5.2
			C437.1,189.7,437.3,190.5,437.4,191.3z"/>
		<g>
			<path class="st3" d="M440,186.3c0,0-1.1,1.3-3,2.7c-2.3,1.7-5.8,3.6-10,3.6c-0.5-14.6-1.2-26.9-2.3-30.5
				C426.6,164.4,435.8,175.9,440,186.3z"/>
		</g>
	</g>
	<g>
		<g>
			<path class="st1" d="M420.7,182.1c1.7,2.2,4.2,7.3,5.3,9.7c0.2,0.3,0.3,0.6,0.4,0.8c0.1,0.3,0.2,0.4,0.2,0.4
				c0.1,0.2,0.2,0.3,0.4,0.3h0c0-0.2,0-0.5,0-0.7c0.1,0,0.3,0,0.4,0c-0.1-0.1-0.2-0.5-0.4-0.9c-0.3-0.6-0.6-1.4-1.1-2.2
				c-1.3-2.6-3.1-6.1-4.4-7.9c-0.2-0.2-0.4-0.2-0.6-0.1C420.6,181.6,420.6,181.9,420.7,182.1z"/>
		</g>
	</g>
	<g>
		<path class="st9" d="M412.5,125.2c0,7.9-5,13.3-13,13.3c-8.1,0-13.7-5.8-13.7-13.7s4.8-13.9,12.8-13.9
			C408.3,110.9,412.5,117.3,412.5,125.2z"/>
		<g>
			<path class="st13" d="M410.7,128.6c0,0,2.2-2.9,3.9-0.5c1.7,2.4-0.7,9.6-4.8,7.8L410.7,128.6z"/>
			<g>
				<g>
					<g>
						<path class="st14" d="M410.7,133.7c0.2,0,0.3-0.1,0.3-0.2c0.6-2.2,3-3.1,3-3.1c0.2-0.1,0.3-0.3,0.2-0.4
							c-0.1-0.2-0.3-0.3-0.4-0.2c-0.1,0-2.7,1-3.4,3.6C410.3,133.4,410.4,133.6,410.7,133.7C410.6,133.7,410.7,133.7,410.7,133.7z"
							/>
					</g>
				</g>
			</g>
			<g>
				<g>
					<g>
						<path class="st14" d="M413,132.6c0.1,0,0.1,0,0.2-0.1c0.2-0.1,0.2-0.3,0.1-0.5c0,0-0.4-0.6-1.3-1c-0.2-0.1-0.4,0-0.5,0.2
							c-0.1,0.2,0,0.4,0.2,0.4c0.7,0.3,1,0.8,1,0.8C412.8,132.5,412.9,132.6,413,132.6z"/>
					</g>
				</g>
			</g>
		</g>
		<g>
			<path class="st13" d="M387.6,128.6c0,0-2.2-2.9-3.9-0.5c-1.7,2.4,0.7,9.6,4.8,7.8L387.6,128.6z"/>
			<g>
				<path class="st14" d="M387.6,133.7c-0.2,0-0.3-0.1-0.3-0.2c-0.6-2.2-3-3.1-3-3.1c-0.2-0.1-0.3-0.3-0.2-0.4
					c0.1-0.2,0.3-0.3,0.4-0.2c0.1,0,2.7,1,3.4,3.6C388,133.4,387.9,133.6,387.6,133.7C387.6,133.7,387.6,133.7,387.6,133.7z"/>
			</g>
			<g>
				<g>
					<g>
						<path class="st14" d="M385.2,132.6c-0.1,0-0.1,0-0.2-0.1c-0.2-0.1-0.2-0.3-0.1-0.5c0,0,0.4-0.6,1.3-1c0.2-0.1,0.4,0,0.5,0.2
							c0.1,0.2,0,0.4-0.2,0.4c-0.7,0.3-1,0.8-1,0.8C385.5,132.5,385.3,132.6,385.2,132.6z"/>
					</g>
				</g>
			</g>
		</g>
		<path class="st7" d="M393.6,141.9v7.1c0,0,2.2,3.6,5.1,3.9c2.9,0.2,5.5-3.1,5.5-3.1v-7.3L393.6,141.9z"/>
		<path class="st13" d="M393.6,141.9v3.1c2,2.1,5.4,2.7,10.6,1.9v-4.6L393.6,141.9z"/>
		<path class="st7" d="M411.9,128.3c-0.1,1.5-0.3,3.1-0.6,4.7c-1,5.2-3.2,10.4-7.9,12c-10.7,3.7-14.5-5.2-16-10.5
			c-0.2-0.6-0.3-1.2-0.5-1.9c-0.2-1.2-0.4-2.6-0.6-4c-0.2-1.7-0.3-3.4-0.4-4.9c-0.2-3.2,1.8-6.1,4.8-7.2c4.4-1.6,11-3,17.3,0.5
			c2.3,1.3,3.8,3.7,3.8,6.3C412,124.7,412,126.5,411.9,128.3z"/>
		<path class="st9" d="M410.5,128.6c-0.4,0.6-2.4,6.7-2.9,7.5c-1.3-2.7-7.4-0.7-7.4-0.7c-0.4,0.1-0.8,0.2-1.2,0.2
			c-0.4,0-0.8-0.1-1.1-0.2l0,0c0,0-6.2-1.9-7.4,1c-0.6-0.8-2.3-6.8-2.6-7.8h-1.6c0.1,1.4,0.3,2.8,0.6,4c0.1,0.7,0.3,1.3,0.5,1.9
			c1.5,5.2,5.3,14.2,16,10.5c4.7-1.7,6.9-6.8,7.9-12c0.3-1.6,0.5-3.2,0.6-4.7L410.5,128.6z M404.8,139.7L404.8,139.7
			C404.8,139.7,404.8,139.7,404.8,139.7c-0.5,0.4-1,0.8-1.4,1.1c-2.7,1.4-3,1.2-4.1,1.3c-1.1,0.1-2.6-0.3-4.1-1.1
			c-0.5-0.3-1.2-0.8-2-1.5c0,0-1.1-3.7,5.9-2.8C406.1,135.5,404.9,139,404.8,139.7z"/>
		<path class="st9" d="M403.7,129.5c0,0.8,0.4,1.4,0.9,1.4c0.5,0,0.9-0.6,0.9-1.4s-0.4-1.4-0.9-1.4
			C404.1,128.1,403.7,128.7,403.7,129.5z"/>
		<path class="st9" d="M393.2,129.5c0,0.8,0.4,1.4,0.9,1.4c0.5,0,0.9-0.6,0.9-1.4c0-0.8-0.4-1.4-0.9-1.4
			C393.6,128.1,393.2,128.7,393.2,129.5z"/>
		<path class="st9" d="M408.1,125.6c0,0-3.4-1.3-6-0.2l0.3,1.4c0,0,3.9-0.3,5.8,0.5C408.3,126.7,408.4,126.2,408.1,125.6z"/>
		<path class="st9" d="M391.2,125.6c0,0,3.4-1.3,6-0.2l-0.3,1.4c0,0-3.9-0.3-5.8,0.5C391,126.7,391,126.2,391.2,125.6z"/>
		<g>
			<path class="st13" d="M399,134.8c-0.6,0-1.2-0.2-1.2-0.3c-0.2-0.1-0.3-0.3-0.2-0.4c0.1-0.2,0.3-0.3,0.4-0.2
				c0.3,0.1,1.1,0.3,1.4,0.1c0.1,0,0.1-0.1,0.2-0.3c0.1-1.2-0.2-5.1-0.2-5.2c0-0.2,0.1-0.3,0.3-0.4c0.2,0,0.4,0.1,0.4,0.3
				c0,0.2,0.3,4,0.2,5.3c0,0.5-0.3,0.7-0.5,0.8C399.5,134.8,399.3,134.8,399,134.8z"/>
		</g>
		<path class="st8" d="M403.7,137.3c-0.3,1.4-1.2,3.9-4.4,3.9c-3.2,0-4-2.3-4.3-3.9H403.7z"/>
		<path class="st9" d="M386.4,128.6h1.6c-0.2-1.5-0.4-4.2,0.9-4.6c4.1-1.2-1.2-4,0.6-5.4c1.8-1.4,6.4-0.8,9.6-0.9
			c3.2-0.1,8.3-0.1,9.6,0.2c1.2,0.3,0.6,2.3,0.1,3.9c-0.5,1.6,1.5,3.3,1.9,4.9c0.1,0.5,0.1,1.2,0,1.9h1.3c0.2-2,0.2-3.8,0.1-5.3
			c-0.1-2.6-1.5-5-3.8-6.3c-6.3-3.5-12.9-2.2-17.3-0.5c-3,1.1-5,4.1-4.8,7.2C386.1,125.2,386.2,126.9,386.4,128.6z"/>
	</g>
</g>
<g>
	<g>
		<g>
			<g>
				<path class="st8" d="M157.7,301.3H78.5c1.3-7.9,7.6-13.7,15-13.7l24.6,0.1l24.6-0.1C150.1,287.6,156.4,293.4,157.7,301.3z"/>
			</g>
			<g>
				<rect x="84.7" y="300.2" class="st8" width="4.3" height="73.8"/>
				<rect x="147.1" y="300.2" class="st8" width="4.3" height="73.8"/>
				<rect x="89.1" y="320.9" class="st0" width="58.1" height="4.2"/>
			</g>
		</g>
		<g>
			<g>
				<path class="st1" d="M98.7,202c0,0-13.2,17.6-15,33c-1.2,10.9,15,27.1,15,27.1l5.6-2.8l-5.6-12.6c-2-6.1-4.4-8.5-2.6-14.7l4-8.7
					L98.7,202z"/>
			</g>
			<g>
				<path class="st1" d="M140.4,201.7c0,0,13,18.8,14.1,34.2c0.9,13.3-15,26.1-15,26.1l-4.6-2.3l6.4-12.7c2-6.1,2.9-9.8,0.2-16.5
					l-3.4-7.3L140.4,201.7z"/>
			</g>
			<g>
				<g>
					<path class="st3" d="M101.4,242.1L92.6,270c0,0,37.9,4.8,49.5,1.7l-5.9-30.4l4.1-39.6c-5.7-2.4-11.7-3.9-17.8-4.4
						c-9-0.6-14.6,0.8-23.8,4.6L101.4,242.1z"/>
				</g>
				<g>
					<g>
						<path class="st1" d="M110.9,210.4c8.4-1,16.2-6.7,16.5-7c0.2-0.2,0.2-0.4,0.1-0.7c-0.2-0.2-0.4-0.2-0.7-0.1
							c-0.1,0.1-9.3,6.8-18.1,6.9c-0.3,0-0.5,0.2-0.5,0.5c0,0.3,0.2,0.5,0.5,0.5C109.5,210.5,110.2,210.5,110.9,210.4z"/>
					</g>
				</g>
			</g>
			<g>
				<polygon class="st7" points="117.6,359.8 118.3,365.9 124.9,366.1 125.4,361 				"/>
				<g>
					<path class="st10" d="M116.6,262.2c0,0-17-0.9-22.7,3.8c-5.7,4.7-4.6,18.2,1.3,21.9c5.9,3.7,15.8,10.9,15.8,10.9l6.3,63.1
						l8.4,0.3c0,0,7.7-63.3,3.8-75.6C125.6,274.2,116.6,262.2,116.6,262.2z"/>
					<path class="st9" d="M126.5,358.9c0.5,1.5,0.2,2.9-0.2,4.3l-9.6-0.2c-0.3-1.4-0.4-2.8-0.2-4.2L126.5,358.9z"/>
				</g>
			</g>
			<g>
				<path class="st8" d="M140.6,261.7H96.1l-4.1-24c-0.4-2.1,1.2-4,3.4-4h46c2.1,0,3.7,1.9,3.4,4L140.6,261.7z"/>
				<g>
					<path class="st0" d="M137,266.9H99.7c-2,0-3.6-1.6-3.6-3.6v-1.6h44.5v1.6C140.7,265.3,139,266.9,137,266.9z"/>
				</g>
				<g>
					<path class="st0" d="M122.3,248.7c0,2.1-1.7,3.9-3.9,3.9c-2.1,0-3.9-1.7-3.9-3.9c0-2.1,1.7-3.9,3.9-3.9
						C120.6,244.8,122.3,246.5,122.3,248.7z"/>
				</g>
			</g>
			<g>
				<polygon class="st7" points="89.8,342.4 88.4,348.5 94.3,349.7 96.7,344.3 				"/>
				<g>
					<path class="st9" d="M125.2,261.1c0,0-11.4-3.9-18,4.3c-6.7,8.2-17.8,77.6-17.8,77.6l7.6,3.2l24.6-61.6c0,0,20,11.4,22.4-4.8
						C146,266.9,125.2,261.1,125.2,261.1z"/>
					<path class="st11" d="M98.8,343c0,1.6-0.7,2.9-1.6,4.2l-9.4-3.3c0.1-1.5,0.5-2.9,1.2-4.2L98.8,343z"/>
				</g>
			</g>
			<g>
				<g>
					<path class="st3" d="M92.9,347.5c0,0-3.6-1.8-4.6-2c-1-0.2-9.7,5.9-12.2,5.9c-4.4-0.1-5.9,6.4-3.3,7.3
						c7.3,2.6,20.8,2.3,20.8,2.3s3-8.1,3.1-10.9C96.7,347.3,94.8,348.8,92.9,347.5z"/>
				</g>
				<g>
					<g>
						<path class="st8" d="M85.1,353.3c0.1,0.1,0.3,0.1,0.4,0c0.3-0.1,0.4-0.4,0.3-0.7c0-0.1-0.9-2.2-2.4-3.2
							c-1.9-1.3-3.7-0.4-3.8-0.4c-0.3,0.1-0.4,0.5-0.2,0.7c0.1,0.3,0.5,0.3,0.7,0.2c0,0,1.3-0.6,2.6,0.3c1.2,0.8,2,2.7,2,2.7
							C84.9,353.2,85,353.3,85.1,353.3z"/>
					</g>
					<g>
						<path class="st8" d="M86.9,352.1c0.1,0.1,0.3,0.1,0.4,0c0.3-0.1,0.4-0.4,0.3-0.7c0-0.1-0.9-2.2-2.4-3.2
							c-1.9-1.3-3.7-0.4-3.8-0.4c-0.3,0.1-0.4,0.5-0.2,0.7c0.1,0.3,0.5,0.3,0.7,0.2c0,0,1.3-0.6,2.6,0.3c1.2,0.8,2,2.7,2,2.7
							C86.6,351.9,86.7,352,86.9,352.1z"/>
					</g>
					<g>
						<path class="st8" d="M82.8,354.2c0.1,0.1,0.3,0.1,0.4,0c0.3-0.1,0.4-0.4,0.3-0.7c0-0.1-0.9-2.2-2.4-3.2
							c-1.9-1.3-3.7-0.4-3.8-0.4c-0.3,0.1-0.4,0.5-0.2,0.7c0.1,0.3,0.5,0.3,0.7,0.2c0,0,1.3-0.6,2.6,0.3c1.2,0.8,2,2.7,2,2.7
							C82.6,354.1,82.7,354.2,82.8,354.2z"/>
					</g>
				</g>
			</g>
			<g>
				<g>
					<path class="st3" d="M120.9,365.7c0,0,3.6-1.1,4.7-1.1c1,0,8.1,7.2,10.4,7.5c4.2,0.6,4.4,7,1.9,7.4c-7.3,1.2-20-1.3-20-1.3
						s-1.5-8.1-1.1-10.7C117.3,364.8,118.8,366.5,120.9,365.7z"/>
				</g>
				<g>
					<g>
						<path class="st8" d="M127.2,372.4c-0.1,0-0.3,0-0.4-0.1c-0.2-0.1-0.3-0.5-0.2-0.7c0-0.1,1.2-1.9,2.7-2.6
							c2-0.9,3.5,0.2,3.6,0.3c0.2,0.2,0.3,0.5,0.1,0.7c-0.2,0.2-0.5,0.3-0.7,0.1c0,0-1.1-0.8-2.5-0.2c-1.2,0.6-2.3,2.2-2.3,2.2
							C127.4,372.3,127.3,372.4,127.2,372.4z"/>
					</g>
					<g>
						<path class="st8" d="M125.7,370.9c-0.1,0-0.3,0-0.4-0.1c-0.2-0.1-0.3-0.5-0.2-0.7c0-0.1,1.2-1.9,2.7-2.6
							c2-0.9,3.5,0.2,3.6,0.3c0.2,0.2,0.3,0.5,0.1,0.7c-0.2,0.2-0.5,0.3-0.7,0.1c0,0-1.1-0.8-2.5-0.2c-1.2,0.6-2.3,2.2-2.3,2.2
							C126,370.8,125.9,370.9,125.7,370.9z"/>
					</g>
					<g>
						<path class="st8" d="M129.2,373.6c-0.1,0-0.3,0-0.4-0.1c-0.2-0.1-0.3-0.5-0.2-0.7c0-0.1,1.2-1.9,2.7-2.6
							c2-0.9,3.5,0.2,3.6,0.3c0.2,0.2,0.3,0.5,0.1,0.7c-0.2,0.2-0.5,0.3-0.7,0.1c0,0-1.1-0.8-2.5-0.2c-1.2,0.6-2.3,2.2-2.3,2.2
							C129.4,373.5,129.3,373.6,129.2,373.6z"/>
					</g>
				</g>
			</g>
			<g>
				<path class="st9" d="M130.8,162.2c0,0,5.4,8.4,4.8,17.1c-0.6,8.7,0.8,18.8-7,18.3c-7.8-0.4-21.7,3.1-26.1-3.7
					C98,187.2,130.8,162.2,130.8,162.2z"/>
				<path class="st15" d="M132.8,177.6c0,0,1.4,12.6-4.6,16.1c-6,3.5-10.3-0.4-10.3-0.4S130.5,175.7,132.8,177.6z"/>
				<g>
					<g>
						<path class="st13" d="M107.9,177.5c0,0-2.1-2.9-3.7-0.5c-1.6,2.4,0.7,9.4,4.6,7.7L107.9,177.5z"/>
						<g>
							<path class="st14" d="M107.9,182.5c-0.1,0-0.3-0.1-0.3-0.2c-0.6-2.2-2.8-3-2.9-3c-0.2-0.1-0.3-0.3-0.2-0.4
								c0.1-0.2,0.3-0.3,0.4-0.2c0.1,0,2.6,1,3.3,3.5C108.2,182.3,108.1,182.5,107.9,182.5C107.9,182.5,107.9,182.5,107.9,182.5z"/>
						</g>
						<g>
							<path class="st14" d="M105.6,181.4c-0.1,0-0.1,0-0.2-0.1c-0.2-0.1-0.2-0.3-0.1-0.5c0,0,0.4-0.6,1.2-1c0.2-0.1,0.4,0,0.4,0.2
								c0.1,0.2,0,0.4-0.2,0.4c-0.6,0.3-1,0.8-1,0.8C105.8,181.4,105.7,181.4,105.6,181.4z"/>
						</g>
					</g>
					<g>
						<path class="st13" d="M130,177.5c0,0,2.1-2.9,3.7-0.5c1.6,2.4-0.7,9.4-4.6,7.7L130,177.5z"/>
						<g>
							<path class="st14" d="M130.1,182.5c0.1,0,0.3-0.1,0.3-0.2c0.6-2.2,2.8-3,2.9-3c0.2-0.1,0.3-0.3,0.2-0.4
								c-0.1-0.2-0.3-0.3-0.4-0.2c-0.1,0-2.6,1-3.3,3.5C129.7,182.3,129.8,182.5,130.1,182.5C130,182.5,130,182.5,130.1,182.5z"/>
						</g>
						<g>
							<path class="st14" d="M132.3,181.4c0.1,0,0.1,0,0.2-0.1c0.2-0.1,0.2-0.3,0.1-0.5c0,0-0.4-0.6-1.2-1c-0.2-0.1-0.4,0-0.4,0.2
								c-0.1,0.2,0,0.4,0.2,0.4c0.6,0.3,1,0.8,1,0.8C132.1,181.4,132.2,181.4,132.3,181.4z"/>
						</g>
					</g>
					<path class="st7" d="M124.2,190.6v7c0,0-2.1,3.5-4.9,3.8c-2.8,0.2-5.3-3.1-5.3-3.1v-7.2L124.2,190.6z"/>
					<path class="st13" d="M124.2,190.6v3.1c-1.9,2.1-5.2,2.8-10.2,2.1l0-4.7L124.2,190.6z"/>
					<path class="st7" d="M131.6,172.8c-0.1,2.7-0.4,6.1-0.9,8.8c-0.1,0.7-0.3,1.3-0.4,1.9c-1.5,5.1-5.1,13.9-15.4,10.3
						c-4.5-1.6-6.6-6.7-7.6-11.8c-0.6-3.5-0.7-7-0.7-9.5c0-2.6,1.5-4.9,3.7-6.2c6.1-3.4,12.4-2.2,16.7-0.5
						C129.9,166.8,131.7,169.6,131.6,172.8z"/>
					<path class="st9" d="M114.4,178.6c0,0.7-0.4,1.3-0.9,1.3c-0.5,0-0.9-0.6-0.9-1.3c0-0.7,0.4-1.3,0.9-1.3
						C114.1,177.3,114.4,177.9,114.4,178.6z"/>
					<path class="st9" d="M125,178.6c0,0.7-0.4,1.3-0.9,1.3c-0.5,0-0.9-0.6-0.9-1.3c0-0.7,0.4-1.3,0.9-1.3
						C124.6,177.3,125,177.9,125,178.6z"/>
					<path class="st9" d="M111.9,174.1c0.7-0.2,2.1-0.5,3.7-0.5c0.4,0,0.7,0.4,0.6,0.7l0,0c-0.1,0.3-0.3,0.5-0.7,0.5
						c-1,0-3.7,0.1-5,0.6c0-0.2,0.1-0.5,0.3-0.7C111.1,174.5,111.5,174.2,111.9,174.1z"/>
					<path class="st9" d="M125.7,174.2c-0.7-0.2-2.1-0.5-3.7-0.5c-0.4,0-0.7,0.4-0.6,0.7l0,0c0.1,0.3,0.3,0.5,0.7,0.5
						c1,0,3.7,0.1,5,0.6c0-0.2-0.1-0.5-0.3-0.7C126.5,174.5,126.1,174.3,125.7,174.2z"/>
					<g>
						<path class="st13" d="M119.1,184.1c-0.3,0-0.5,0-0.7-0.2c-0.2-0.1-0.4-0.3-0.5-0.8c-0.1-1.2,0.2-5,0.2-5.2
							c0-0.2,0.2-0.3,0.4-0.3c0.2,0,0.3,0.2,0.3,0.4c0,0-0.3,3.9-0.2,5.1c0,0.2,0.1,0.3,0.2,0.3c0.3,0.2,1,0,1.3-0.1
							c0.2-0.1,0.4,0,0.4,0.2c0.1,0.2,0,0.4-0.2,0.4C120.2,183.9,119.6,184.1,119.1,184.1z"/>
					</g>
					<path class="st8" d="M114.9,186.2c0.3,1.3,1.1,3.6,3.9,3.6c2.8,0,3.6-2.1,3.9-3.6H114.9z"/>
					<g>
						<path class="st13" d="M118.7,191.7c-0.8,0-1.5-0.4-1.6-0.5c-0.2-0.1-0.2-0.3-0.1-0.5c0.1-0.2,0.3-0.2,0.5-0.1l0,0
							c0,0,0.6,0.4,1.2,0.4c0.7,0,1.3-0.4,1.3-0.4c0.2-0.1,0.4,0,0.5,0.1c0.1,0.2,0,0.4-0.1,0.5
							C120.3,191.2,119.6,191.7,118.7,191.7z"/>
					</g>
				</g>
				<path class="st9" d="M132.9,172.2c-0.1,0.3-0.4,0.5-0.8,0.6c0,0.7,0,1.6-0.1,2.4c-0.4,4.8-1.6,5.6-1.9,4.4
					c-0.2-0.8-0.2-5.3-0.1-6.8c-0.9-0.1-1.8-0.2-1.8-0.2l-1.1-4.6l-0.4,4.6c-1.7,0.6-5.5-0.3-5.5-0.3l-1.3-4.6l-0.8,4.4
					c-2.5,1.2-5.6,0.4-5.6,0.4l-0.7-4.7l-1.7,4.7c0,0-5.3,1.9-5.4,0c0-1.1,0.8-4.2,1.5-6.7c0.7-2.6,2.5-4.9,4.8-6.1
					c6.6-3.5,13.6-1.7,16-0.2C133.1,162.6,132.9,172.2,132.9,172.2z"/>
				<path class="st9" d="M108.7,162.6c0,0-4.4,5.2-5.8,14.5c-1.4,9.3-3.4,16.2,2.2,19.3c6.1,3.3,5.5-3.5,5.5-5.3
					c-0.1-1.9-5.3-6.9-1.8-21.2C109.8,165.2,108.7,162.6,108.7,162.6z"/>
				<path class="st15" d="M107.7,181.8C107.7,181.8,107.7,181.8,107.7,181.8c0,0.1,0,0.5,0,1c0,0.4,0,0.8,0.1,1.3
					c0.2,3.1,0.8,8.6,2.6,10.4c0.7,0.7,2.1,1.1,3.7,1.3v-2.5c-1.7-0.8-3-2.1-4-3.7c-0.6-1.4-1.7-3.5-2.2-6.9L107.7,181.8z"/>
				<path class="st8" d="M131.7,184.8c0,0.4-0.3,0.8-0.8,0.8c-0.4,0-0.8-0.3-0.8-0.8c0-0.4,0.3-0.8,0.8-0.8
					C131.3,184.1,131.7,184.4,131.7,184.8z"/>
			</g>
		</g>
	</g>
</g>
<g>
	<g>
		<g>
			<g>
				<path class="st3" d="M365.2,118.1h-19c-1.5,0-2.6-1.2-2.6-2.6v-19c0-1.5,1.2-2.6,2.6-2.6h19c1.5,0,2.6,1.2,2.6,2.6v19
					C367.8,116.9,366.6,118.1,365.2,118.1z"/>
			</g>
		</g>
		<g>
			<path class="st16" d="M363.9,106c0,2-0.7,3.8-1.9,5.3c-1.5,1.8-3.8,3-6.4,3c-2.6,0-4.9-1.2-6.4-3c-1.2-1.4-1.9-3.3-1.9-5.3
				c0-4.6,3.7-8.3,8.3-8.3C360.2,97.7,363.9,101.4,363.9,106z"/>
			<path class="st8" d="M362,111.2c-1.5,1.8-3.8,3-6.4,3c-2.6,0-4.9-1.2-6.4-3l0.1-0.2c0.2-0.4,0.4-0.7,0.7-0.9
				c0.3-0.3,0.6-0.4,1-0.6c1.3-0.4,2.6-0.8,3.3-2c-0.9-0.4-1.4-1.2-1.7-1.8c-0.9,0.2-1.6-1.5-1.1-2c0.2-0.2,0.4-0.2,0.6-0.2
				c0.2-1.8,1.6-3.3,3.4-3.3c1.8,0,3.3,1.6,3.4,3.3c0.2,0,0.4,0,0.6,0.2c0.5,0.5-0.2,2.2-1.1,2c-0.2,0.6-0.9,1.4-1.5,1.7
				c0.7,1.2,1.8,1.7,3.2,2.1c0.4,0.1,0.7,0.3,1,0.6c0.3,0.3,0.5,0.6,0.7,0.9L362,111.2z"/>
		</g>
	</g>
	<g>
		<g>
			<g>
				<path class="st3" d="M49.5,247.3h-19c-1.5,0-2.6-1.2-2.6-2.6v-19c0-1.5,1.2-2.6,2.6-2.6h19c1.5,0,2.6,1.2,2.6,2.6v19
					C52.2,246.1,51,247.3,49.5,247.3z"/>
			</g>
		</g>
		<path class="st8" d="M40.4,227.1c-3.1-0.2-5.7,2.3-5.7,5.3c0,1,0.3,1.9,0.7,2.7c0.7,1.2,1.4,2.4,2.1,3.6l2.5,4.5l3.8-6.9
			c0.2-0.4,0.5-0.8,0.7-1.2c0.5-0.8,0.8-1.8,0.7-2.8C45.3,229.5,43.1,227.3,40.4,227.1z M40,234c-1.2,0-2.2-1-2.2-2.2
			c0-1.2,1-2.2,2.2-2.2c1.2,0,2.2,1,2.2,2.2C42.3,233,41.3,234,40,234z"/>
	</g>
	<g>
		<g>
			<g>
				<g>
					<path class="st0" d="M351.8,66.8c0.1,0,0.2,0,0.4,0c1.3-0.3,2-0.4,2-0.4c0.4-0.1,0.6-0.4,0.6-0.8c-0.1-0.4-0.4-0.6-0.8-0.5
						c0,0-0.8,0.1-2.1,0.5c-0.4,0.1-0.6,0.5-0.5,0.8C351.3,66.6,351.5,66.8,351.8,66.8z"/>
				</g>
			</g>
			<g>
				<g>
					<path class="st0" d="M310.1,97.7c-0.7,1.1-1.3,2.3-1.9,3.5c-0.1,0.3-0.5,0.4-0.8,0.4c0,0-0.1,0-0.1,0c-0.4-0.2-0.5-0.6-0.3-0.9
						c0.6-1.2,1.3-2.4,2-3.6c0.2-0.3,0.6-0.4,1-0.3C310.2,97,310.3,97.4,310.1,97.7z"/>
				</g>
				<g>
					<path class="st0" d="M306.5,104.9c-0.5,1.2-1,2.5-1.5,3.7c-0.1,0.3-0.5,0.5-0.9,0.4c0,0,0,0-0.1,0c-0.4-0.1-0.6-0.5-0.4-0.9
						c0.5-1.3,1-2.6,1.5-3.8c0.1-0.3,0.6-0.5,0.9-0.4C306.5,104.1,306.7,104.5,306.5,104.9z"/>
				</g>
				<g>
					<path class="st0" d="M300.4,124.6c-0.3-0.1-0.6-0.4-0.5-0.7c0.2-1.3,0.4-2.7,0.6-4c0.1-0.4,0.4-0.6,0.8-0.5
						c0.4,0.1,0.7,0.4,0.6,0.8c-0.2,1.3-0.5,2.6-0.6,3.9C301.3,124.4,300.9,124.7,300.4,124.6C300.5,124.6,300.5,124.6,300.4,124.6z
						"/>
				</g>
				<g>
					<path class="st0" d="M303.3,111.5c0.4,0.1,0.6,0.5,0.5,0.8c-0.2,0.6-0.3,1.2-0.5,1.8c-0.2,0.7-0.4,1.4-0.5,2.1
						c-0.1,0.4-0.5,0.6-0.9,0.5c0,0,0,0,0,0c-0.4-0.1-0.6-0.4-0.5-0.8c0.2-0.7,0.3-1.4,0.5-2.1c0.2-0.6,0.3-1.2,0.5-1.8
						C302.5,111.6,302.9,111.4,303.3,111.5C303.3,111.5,303.3,111.5,303.3,111.5z"/>
				</g>
				<g>
					<path class="st0" d="M312.2,94.3c-0.2,0.3-0.5,0.4-0.8,0.3c-0.1,0-0.1,0-0.2-0.1c-0.3-0.2-0.4-0.6-0.2-0.9
						c0.8-1.1,1.6-2.3,2.4-3.3c0.2-0.3,0.7-0.4,1-0.2c0.3,0.2,0.4,0.6,0.2,0.9C313.8,92.1,313,93.2,312.2,94.3z"/>
				</g>
				<g>
					<path class="st0" d="M348.1,68c-1.3,0.4-2.6,0.9-3.9,1.4c-0.1,0.1-0.3,0.1-0.4,0c-0.2-0.1-0.4-0.2-0.5-0.4
						c-0.2-0.3,0-0.7,0.4-0.9c1.3-0.5,2.7-1,4-1.4c0.4-0.1,0.8,0.1,0.9,0.4C348.7,67.5,348.5,67.9,348.1,68z"/>
				</g>
				<g>
					<path class="st0" d="M336.6,72.8c-0.2,0.1-0.4,0.1-0.5,0.1c-0.2,0-0.4-0.2-0.5-0.3c-0.2-0.3-0.1-0.7,0.3-0.9
						c1.2-0.7,2.5-1.3,3.8-1.9c0.4-0.2,0.8,0,1,0.3c0.2,0.3,0,0.7-0.3,0.9C339.1,71.6,337.8,72.2,336.6,72.8z"/>
				</g>
				<g>
					<path class="st0" d="M323,82.1c-0.2,0.2-0.4,0.2-0.7,0.2c-0.1,0-0.2-0.1-0.3-0.2c-0.3-0.3-0.3-0.7,0-1c1-0.9,2.1-1.8,3.2-2.7
						c0.3-0.2,0.8-0.2,1,0.1c0.3,0.3,0.2,0.7-0.1,0.9C325,80.4,324,81.2,323,82.1z"/>
				</g>
				<g>
					<path class="st0" d="M329.5,77.1c-0.2,0.1-0.4,0.2-0.6,0.1c-0.2,0-0.3-0.1-0.4-0.3c-0.2-0.3-0.2-0.7,0.2-0.9
						c1.2-0.8,2.3-1.6,3.6-2.3c0.3-0.2,0.8-0.1,1,0.2c0.2,0.3,0.1,0.7-0.2,0.9C331.8,75.6,330.6,76.3,329.5,77.1z"/>
				</g>
				<g>
					<path class="st0" d="M317.2,87.9c-0.2,0.2-0.5,0.3-0.7,0.2c-0.1,0-0.2-0.1-0.3-0.1c-0.3-0.2-0.3-0.7-0.1-0.9
						c0.9-1,1.9-2.1,2.8-3c0.3-0.3,0.7-0.3,1,0c0.3,0.3,0.3,0.7,0,1C319,85.9,318.1,86.9,317.2,87.9z"/>
				</g>
			</g>
		</g>
		<g>
			<g>
				<g>
					<polygon class="st3" points="352.5,62.3 351.1,51.1 389.1,56.5 					"/>
				</g>
				<g>
					<polygon class="st1" points="389.1,56.5 353.9,65.1 353.9,65.2 352.1,67.2 352.5,62.3 					"/>
				</g>
				<g>
					<polygon class="st2" points="352.1,67.2 355.2,67.1 353.9,65.2 					"/>
				</g>
				<g>
					<polygon class="st3" points="358.3,64.1 353.9,65.2 361,75.4 389.1,56.5 					"/>
				</g>
			</g>
		</g>
	</g>
</g>
</svg>
